<?xml version="1.0" standalone="no"?>
<!DOCTYPE svg PUBLIC "-//W3C//DTD SVG 20010904//EN"
 "http://www.w3.org/TR/2001/REC-SVG-20010904/DTD/svg10.dtd">
<svg version="1.0" xmlns="http://www.w3.org/2000/svg"
 width="760.000000pt" height="760.000000pt" viewBox="0 0 760.000000 760.000000"
 preserveAspectRatio="xMidYMid meet">

<g transform="translate(0.000000,760.000000) scale(0.100000,-0.100000)"
fill="#000000" stroke="none">
<path d="M0 3800 l0 -3800 3800 0 3800 0 0 3800 0 3800 -3800 0 -3800 0 0
-3800z m4794 875 c336 -99 576 -363 642 -703 89 -461 -200 -917 -661 -1044
-115 -31 -344 -31 -460 0 -313 85 -562 337 -647 652 -32 122 -32 328 0 450 91
341 359 592 708 665 109 23 306 13 418 -20z m-1891 -289 c229 -72 386 -253
425 -490 13 -84 13 -102 -1 -187 -41 -244 -211 -427 -453 -489 -204 -52 -411
6 -564 160 -87 86 -132 164 -160 276 -37 143 -18 304 52 437 72 139 240 266
398 302 78 18 232 13 303 -9z"/>
<path d="M2667 4100 c-227 -57 -312 -324 -156 -495 64 -69 130 -99 224 -99
319 -2 412 445 119 575 -50 23 -137 31 -187 19z"/>
</g>
</svg>
